<?xml version="1.0" encoding="UTF-8" standalone="no"?>
<svg
   version="1.1"
   style="fill:none"
   width="320.84576"
   height="135"
   id="svg439"
   sodipodi:docname="nand_gate_symbol.svg"
   inkscape:version="1.2.2 (b0a8486541, 2022-12-01)"
   xml:space="preserve"
   xmlns:inkscape="http://www.inkscape.org/namespaces/inkscape"
   xmlns:sodipodi="http://sodipodi.sourceforge.net/DTD/sodipodi-0.dtd"
   xmlns="http://www.w3.org/2000/svg"
   xmlns:svg="http://www.w3.org/2000/svg"><defs
     id="defs443" /><sodipodi:namedview
     id="namedview441"
     pagecolor="#ffffff"
     bordercolor="#000000"
     borderopacity="0.25"
     inkscape:showpageshadow="2"
     inkscape:pageopacity="0.0"
     inkscape:pagecheckerboard="0"
     inkscape:deskcolor="#d1d1d1"
     showgrid="false"
     inkscape:zoom="1.275108"
     inkscape:cx="177.63201"
     inkscape:cy="-26.272284"
     inkscape:window-width="1366"
     inkscape:window-height="746"
     inkscape:window-x="0"
     inkscape:window-y="0"
     inkscape:window-maximized="1"
     inkscape:current-layer="svg439" /><path
     id="path333"
     style="fill:none;stroke:#0a0a0a;stroke-width:15px;stroke-linecap:round;stroke-linejoin:round"
     d="m 92.40607,7.5 v 120 a 120,60 0 0 0 120,-60 120,60 0 0 0 -120,-60 m 123.4397,60 A 15.882358,15.882358 0 0 1 231.72813,51.617639 15.882358,15.882358 0 0 1 247.61049,67.5 15.882358,15.882358 0 0 1 231.72813,83.382357 15.882358,15.882358 0 0 1 215.84577,67.5 m 37.5,-2e-6 v 0 h 60 M 82.5,97.5 H 92.40607 7.5 m 75,-60 H 92.40607 7.5" /></svg>
