<?xml version="1.0" encoding="UTF-8" standalone="no"?>
<svg
   version="1.1"
   style="fill:none"
   width="292.5"
   height="135"
   id="svg439"
   sodipodi:docname="nor_gate_symbol.svg"
   inkscape:version="1.2.2 (b0a8486541, 2022-12-01)"
   xmlns:inkscape="http://www.inkscape.org/namespaces/inkscape"
   xmlns:sodipodi="http://sodipodi.sourceforge.net/DTD/sodipodi-0.dtd"
   xmlns="http://www.w3.org/2000/svg"
   xmlns:svg="http://www.w3.org/2000/svg">
  <defs
     id="defs443" />
  <sodipodi:namedview
     id="namedview441"
     pagecolor="#ffffff"
     bordercolor="#000000"
     borderopacity="0.25"
     inkscape:showpageshadow="2"
     inkscape:pageopacity="0.0"
     inkscape:pagecheckerboard="0"
     inkscape:deskcolor="#d1d1d1"
     showgrid="false"
     inkscape:zoom="1.275108"
     inkscape:cx="18.037688"
     inkscape:cy="-25.488037"
     inkscape:window-width="1366"
     inkscape:window-height="746"
     inkscape:window-x="0"
     inkscape:window-y="0"
     inkscape:window-maximized="1"
     inkscape:current-layer="svg439" />
  <path
     id="path6113"
     style="fill:none;stroke:#36271c;stroke-width:15;stroke-linecap:round;stroke-linejoin:round;stroke-dasharray:none;stroke-opacity:1"
     d="M 187.5,67.5 A 15.882358,15.882358 0 0 1 203.38236,51.617639 15.882358,15.882358 0 0 1 219.26472,67.5 15.882358,15.882358 0 0 1 203.38236,83.382357 15.882358,15.882358 0 0 1 187.5,67.5 m 37.5,-2e-6 v 0 h 60 M 67.5,127.5 c 66.27417,0 120,-26.86292 120,-60 0,-33.137085 -53.72583,-60 -120,-60 m 0,120 c 16.568542,0 30,-26.86292 30,-60 0,-33.137085 -13.431458,-60 -30,-60 m 15,90 H 92.40607 7.5 m 75,-60 H 92.40607 7.5" />
</svg>
